# AST/ASF file generated using VICON BodyLanguage
# -----------------------------------------------
:version 1.10
:name VICON
:units
  mass 1.0
  length 0.45
  angle deg
:documentation
   .ast/.asf automatically generated from VICON data using
   VICON BodyBuilder and BodyLanguage model FoxedUp or BRILLIANT.MOD
:root
   order TX TY TZ RX RY RZ
   axis XYZ
   position 0 0 0  
   orientation 0 0 0 
:bonedata
  begin
     id 1 
     name lhipjoint
     direction 0.547975 -0.797114 0.253638 
     length 2.36201 
     axis 0 0 0  XYZ
  end
  begin
     id 2 
     name lfemur
     direction 0.34202 -0.939693 0  
     length 7.69075  
     axis 0 0 20  XYZ
    dof rx ry rz
    limits (-160.0 20.0)
           (-70.0 70.0)
           (-60.0 70.0)
  end
  begin
     id 3 
     name ltibia
     direction 0.34202 -0.939693 0   
     length 7.91399   
     axis 0 0 20   XYZ
    dof rx
    limits (-10.0 170.0)
  end
  begin
     id 4 
     name lfoot
     direction 0.0705293 -0.193778 0.978507   
     length 2.13618   
     axis -90 7.62852e-016 20   XYZ
    dof rx rz
    limits (-45.0 90.0)
           (-70.0 20.0)
  end
  begin
     id 5 
     name ltoes
     direction 1.53592e-011 -4.21925e-011 1   
     length 1.07518   
     axis -90 7.62852e-016 20   XYZ
    dof rx
    limits (-90.0 20.0)
  end
  begin
     id 6 
     name rhipjoint
     direction -0.57 -0.782963 0.249136   
     length 2.4047  
     axis 0 0 0  XYZ 
  end
  begin
     id 7 
     name rfemur
     direction -0.34202 -0.939693 0   
     length 7.51486   
     axis 0 0 -20   XYZ
    dof rx ry rz
    limits (-160.0 20.0)
           (-70.0 70.0)
           (-70.0 60.0)
  end
  begin
     id 8 
     name rtibia
     direction -0.34202 -0.939693 0   
     length 8.08317   
     axis 0 0 -20   XYZ
    dof rx
    limits (-10.0 170.0)
 end
 begin
     id 9 
     name rfoot
     direction -0.104954 -0.281256 0.953876   
     length 2.30343  
     axis -90 -7.62852e-016 -20   XYZ
    dof rx rz
    limits (-45.0 90.0)
           (-20.0 70.0)
  end
  begin
     id 10 
     name rtoes
     direction -1.53556e-011 -4.21922e-011 1   
     length 1.14803   
     axis -90 -7.62852e-016 -20   XYZ
    dof rx
    limits (-90.0 20.0)
  end
  begin
     id 11 
     name lowerback
     direction -0.0152855 0.99353 -0.11254   
     length 2.05311   
     axis 0 0 0   XYZ
    dof rx ry rz
    limits (-20.0 45.0)
           (-30.0 30.0)
           (-30.0 30.0)
  end
  begin
     id 12 
     name upperback
     direction -0.00157509 0.999443 -0.033332   
     length 2.06353   
     axis 0 0 0   XYZ
    dof rx ry rz
    limits (-20.0 45.0)
           (-30.0 30.0)
           (-30.0 30.0)
  end
  begin
     id 13 
     name thorax
     direction 0.00577788 0.999804 0.0189484   
     length 2.08472   
     axis 0 0 0   XYZ
    dof rx ry rz
    limits (-20.0 45.0)
           (-30.0 30.0)
           (-30.0 30.0)
  end
  begin
     id 14 
     name lowerneck
     direction -1.09301e-005 0.994719 0.10264   
     length 1.76249   
     axis 0 0 0   XYZ
    dof rx ry rz
    limits (-20.0 45.0)
           (-30.0 30.0)
           (-30.0 30.0)
  end
  begin
     id 15 
     name upperneck
     direction 0.0495018 0.988526 -0.142706   
     length 1.77897   
     axis 0 0 0   XYZ
    dof rx ry rz
    limits (-20.0 45.0)
           (-30.0 30.0)
           (-30.0 30.0)
  end
  begin
     id 16
     name head
     direction 0.0142736 0.998114 -0.0597101  
     length 1.78934  
     axis 0 0 0   XYZ
    dof rx ry rz
    limits (-20.0 45.0)
           (-30.0 30.0)
           (-30.0 30.0)
  end
  begin
     id 17 
     name lclavicle
     direction 0.918111 0.396107 -0.0130883  
     length 3.37276  
     axis 0 0 0   XYZ
    dof ry rz
    limits (-20.0 10.0)
           (0.0 20.0)
  end
  begin
     id 18 
     name lhumerus
     direction 1 -4.48975e-011 -3.26108e-027   
     length 5.34298   
     axis 180 -30 -90   XYZ
    dof rx ry rz
    limits (-60.0 90.0)
           (-90.0 90.0)
           (-90.0 90.0)
  end
  begin
     id 19
     name lradius
     direction 1 -4.48964e-011 -8.84413e-028   
     length 3.67262   
     axis 180 -30 -90   XYZ
    dof rx
    limits (-10.0 170.0)
  end
  begin
     id 20
     name lwrist
     direction 1 -4.48991e-011 -1.24264e-027   
     length 1.83631   
     axis -2.17013e-015 90 90   XYZ
    dof ry
    limits (-180.0 0.0)
 end
  begin
     id 21 
     name lhand
     direction 1 -4.48855e-011 -2.48528e-027   
     length 0.599298   
     axis 1.58582e-015 90 90   XYZ
    dof rx rz
    limits (-90.0 90.0)
           (-45.0 45.0)
  end
  begin
     id 22 
     name lfingers
     direction 1 -4.48811e-011 -4.97056e-027   
     length 0.48317   
     axis 3.17164e-015 90 90   XYZ
    dof rx
    limits (0.0 90.0)
  end
  begin
     id 23
     name lthumb
     direction 0.707107 -6.34882e-011 0.707107   
     length 0.693738   
     axis -90 45 2.85299e-015   XYZ
    dof rx rz
    limits (-45.0 45.0)
           (-45.0 45.0)
  end
  begin
     id 24 
     name rclavicle
     direction -0.920511 0.384752 -0.0680135   
     length 3.43787  
     axis 0 0 0   XYZ 
    dof ry rz
    limits (-10.0 20.0)
           (-20.0 0.0)
  end
  begin
     id 25 
     name rhumerus
     direction -0.999976 -0.00330524 0.00603274  
     length 5.5498   
     axis 180 30 90   XYZ
    dof rx ry rz
    limits (-90.0 60.0)
           (-90.0 90.0)
           (-90.0 90.0)
  end
  begin
     id 26 
     name rradius
     direction -1 -4.48967e-011 8.62438e-027   
     length 3.69401   
     axis 180 30 90   XYZ
    dof rx
    limits (-10.0 170.0)
  end
  begin
     id 27 
     name rwrist
     direction -1 -4.4897e-011 9.54866e-027   
     length 1.84701   
     axis -7.69462e-015 -90 -90   XYZ
    dof ry
    limits (-180.0 0.0)
  end
  begin
     id 28
     name rhand
     direction -1 -4.48982e-011 1.90973e-026   
     length 0.638113   
     axis -1.21857e-014 -90 -90   XYZ
    dof rx rz
    limits (-90.0 90.0)
           (-45.0 45.0)
  end
  begin
     id 29
     name rfingers
     direction -1 -4.48936e-011 3.81946e-026   
     length 0.514463   
     axis -2.43714e-014 -90 -90   XYZ
    dof rx
    limits (0.0 90.0)
  end
  begin
     id 30
     name rthumb
     direction -0.707107 -6.34942e-011 0.707107   
     length 0.738669   
     axis -90 -45 -2.85299e-015   XYZ
    dof rx rz
    limits (-45.0 45.0)
           (-45.0 45.0)
  end
:hierarchy
  begin
    root lhipjoint rhipjoint lowerback
    lhipjoint lfemur
    lfemur ltibia
    ltibia lfoot
    lfoot ltoes
    rhipjoint rfemur
    rfemur rtibia
    rtibia rfoot
    rfoot rtoes
    lowerback upperback
    upperback thorax
    thorax lowerneck lclavicle rclavicle
    lowerneck upperneck
    upperneck head
    lclavicle lhumerus
    lhumerus lradius
    lradius lwrist
    lwrist lhand lthumb
    lhand lfingers
    rclavicle rhumerus
    rhumerus rradius
    rradius rwrist
    rwrist rhand rthumb
    rhand rfingers
  end

#!OML:ASF F:\twosubjects\two\Thursday\Session 1\Rory.ASF
:FULLY-SPECIFIED
:DEGREES
202
root 11.8636 18.8876 11.4614 -147.942 -79.4045 151.349
lowerback -1.26076 -1.25997 -8.00339
upperback 1.20945 -1.55242 -3.35751
thorax 2.07689 -0.908865 0.959599
lowerneck 4.64801 -17.8451 -15.5453
upperneck 7.61032 -28.6775 25.4212
head 7.68901 -14.3408 7.80077
rclavicle -2.88238e-015 2.14687e-014
rhumerus -37.9967 -15.5966 -80.0874
rradius 35.1514
rwrist 19.8534
rhand -18.1757 26.8345
rfingers 7.12502
rthumb 8.1008 -2.99022
lclavicle -2.88238e-015 2.14687e-014
lhumerus -42.9559 17.6006 67.874
lradius 36.8165
lwrist -12.0565
lhand -7.52477 30.4289
lfingers 7.12502
lthumb 18.3661 59.5818
rfemur -5.44996 15.2573 4.84358
rtibia 9.80632
rfoot -5.43742 -12.8803
rtoes -9.52764
lfemur -5.86761 5.48794 -25.8794
ltibia 13.3152
lfoot -9.60453 3.60331
ltoes 13.1035
203
root 11.8665 18.8922 11.4425 -148.804 -79.2485 152.204
lowerback -1.29428 -1.29684 -8.22597
upperback 1.19575 -1.59139 -3.16734
thorax 2.09706 -0.930804 1.27652
lowerneck 4.51451 -17.752 -15.9774
upperneck 7.82232 -28.6195 25.5019
head 7.84811 -14.2997 7.87174
rclavicle -4.83047e-014 -2.38542e-014
rhumerus -37.9059 -15.424 -79.9467
rradius 35.4739
rwrist 20.2023
rhand -17.2237 26.7074
rfingers 7.12502
rthumb 9.01948 -3.07982
lclavicle -4.83047e-014 -2.38542e-014
lhumerus -42.8683 17.8796 68.0514
lradius 37.0732
lwrist -12.0422
lhand -9.70321 31.3544
lfingers 7.12502
lthumb 16.2694 60.6919
rfemur -5.52292 15.4989 4.9646
rtibia 9.83161
rfoot -5.71048 -12.8804
rtoes -8.43995
lfemur -5.82412 5.59066 -25.7483
ltibia 13.2549
lfoot -9.72433 3.59223
ltoes 13.5868
204
root 11.8682 18.8926 11.4374 -149.836 -79.3032 153.155
lowerback -1.18073 -1.23894 -8.0039
upperback 1.18226 -1.53007 -3.12146
thorax 2.00871 -0.893037 1.20713
lowerneck 4.59573 -17.7476 -16.0908
upperneck 7.80477 -28.6454 25.5893
head 7.86752 -14.3211 7.91609
rclavicle -6.4605e-015 -3.97569e-014
rhumerus -37.8708 -15.3079 -79.937
rradius 35.6701
rwrist 19.7088
rhand -17.2622 26.2426
rfingers 7.12502
rthumb 8.9823 -3.54614
lclavicle -6.4605e-015 -3.97569e-014
lhumerus -42.6548 17.6323 68.2352
lradius 37.299
lwrist -11.9742
lhand -8.15534 31.3923
lfingers 7.12502
lthumb 17.7594 60.6014
rfemur -5.47287 15.5891 5.19439
rtibia 9.89599
rfoot -5.79925 -12.8937
rtoes -7.75412
lfemur -5.68045 5.56208 -25.5254
ltibia 13.1762
lfoot -9.77297 3.57496
ltoes 13.4225
205
root 11.8672 18.8952 11.4396 -149.778 -79.3812 153.015
lowerback -1.0787 -1.23897 -7.83665
upperback 1.12981 -1.54848 -3.19224
thorax 1.8912 -0.895255 1.04499
lowerneck 4.71868 -17.7793 -15.9429
upperneck 7.87357 -28.6932 25.4426
head 7.82963 -14.3512 7.85653
rclavicle -2.41523e-014 -2.94201e-014
rhumerus -37.8512 -15.0444 -80.0427
rradius 35.7505
rwrist 18.6895
rhand -18.3635 25.5914
rfingers 7.12502
rthumb 7.91951 -4.2403
lclavicle -2.41523e-014 -2.94201e-014
lhumerus -42.5073 17.2288 68.3736
lradius 37.4264
lwrist -11.9998
lhand -8.36311 31.3771
lfingers 7.12502
lthumb 17.5594 60.6041
rfemur -5.3508 15.5492 5.19719
rtibia 9.91342
rfoot -5.89929 -12.8051
rtoes -6.39242
lfemur -5.54984 5.17925 -25.5103
ltibia 13.1251
lfoot -9.65248 3.87413
ltoes 12.7643
206
root 11.8687 18.8999 11.4399 -148.524 -79.2524 151.747
lowerback -1.05946 -1.25513 -8.02969
upperback 1.08048 -1.57647 -3.31738
thorax 1.83319 -0.910629 1.02276
lowerneck 4.57661 -17.8403 -15.6948
upperneck 8.10233 -28.7533 25.1384
head 7.84814 -14.3571 7.70204
rclavicle -3.37934e-015 -7.95139e-015
rhumerus -37.9886 -15.2009 -80.0336
rradius 36.207
rwrist 18.4663
rhand -18.8688 24.6812
rfingers 7.12502
rthumb 7.43175 -5.16828
lclavicle -3.37934e-015 -7.95139e-015
lhumerus -42.2746 16.9243 68.5279
lradius 37.5029
lwrist -11.7329
lhand -8.0557 31.1607
lfingers 7.12502
lthumb 17.8552 60.361
rfemur -5.28542 15.5541 4.87347
rtibia 9.77703
rfoot -5.89611 -12.8227
rtoes -6.00112
lfemur -5.54755 4.59308 -25.8067
ltibia 13.1544
lfoot -9.6722 4.35054
ltoes 13.5805
207
root 11.8689 18.903 11.4304 -150.22 -79.2349 153.418
lowerback -1.05927 -1.12432 -7.78294
upperback 1.07982 -1.40499 -3.31405
thorax 1.81265 -0.820719 0.895816
lowerneck 4.55128 -17.9027 -15.4208
upperneck 8.2026 -28.8792 25.1322
head 7.87003 -14.4086 7.63908
rclavicle 2.68359e-015 -4.6118e-014
rhumerus -38.1288 -15.2839 -80.0313
rradius 36.7432
rwrist 18.1805
rhand -18.7831 24.6187
rfingers 7.12502
rthumb 7.51452 -5.22787
lclavicle 2.68359e-015 -4.6118e-014
lhumerus -41.9043 16.4505 68.7304
lradius 37.5578
lwrist -11.4037
lhand -7.92571 31.1553
lfingers 7.12502
lthumb 17.9803 60.3441
rfemur -5.18994 15.7635 5.21571
rtibia 9.5986
rfoot -5.755 -12.9241
rtoes -6.52125
lfemur -5.48312 4.09516 -25.4888
ltibia 13.2117
lfoot -9.81285 4.93213
ltoes 15.3483
208
root 11.8671 18.9025 11.4324 -151.66 -79.5566 154.889
lowerback -1.09952 -1.12986 -7.19856
upperback 1.07459 -1.41386 -3.28603
thorax 1.81584 -0.815449 0.601237
lowerneck 4.58688 -17.9028 -15.4309
upperneck 8.39081 -29.018 25.3354
head 7.99517 -14.4728 7.67808
rclavicle 1.22253e-014 3.18055e-015
rhumerus -38.2038 -14.9763 -80.0667
rradius 37.2364
rwrist 17.5247
rhand -18.0296 25.5156
rfingers 7.12502
rthumb 8.24174 -4.30366
lclavicle 1.22253e-014 3.18055e-015
lhumerus -41.6418 16.1422 68.8899
lradius 37.6506
lwrist -11.3477
lhand -10.6318 32.0094
lfingers 7.12502
lthumb 15.3752 61.4177
rfemur -5.04397 15.6421 5.6657
rtibia 9.44491
rfoot -5.7833 -12.9725
rtoes -5.85465
lfemur -5.52702 3.72798 -25.0758
ltibia 13.3084
lfoot -9.68079 5.21218
ltoes 15.7885
209
root 11.8696 18.9009 11.4302 -151.872 -79.699 155.229
lowerback -1.19349 -1.18955 -6.97983
upperback 1.0136 -1.48966 -3.2679
thorax 1.80492 -0.847972 0.495592
lowerneck 4.48634 -17.8743 -15.5947
upperneck 8.71015 -29.1231 25.4714
head 8.19173 -14.5067 7.70438
rclavicle -1.21259e-014 4.77083e-015
rhumerus -38.3173 -15.2227 -79.9341
rradius 37.6647
rwrist 17.4218
rhand -17.1208 26.5324
rfingers 7.12502
rthumb 9.1188 -3.25049
lclavicle -1.21259e-014 4.77083e-015
lhumerus -41.4993 15.9303 69.0937
lradius 37.8501
lwrist -11.0163
lhand -7.55013 31.0431
lfingers 7.12502
lthumb 18.3417 60.1984
rfemur -5.11221 15.543 5.80517
rtibia 9.40665
rfoot -5.83905 -13.0067
rtoes -5.06478
lfemur -5.69721 3.6956 -24.9446
ltibia 13.3464
lfoot -9.47829 5.20438
ltoes 15.3912
210
root 11.873 18.901 11.4137 -151.505 -79.4543 154.997
lowerback -1.33612 -1.1299 -7.30999
upperback 0.950824 -1.39582 -3.27887
thorax 1.82279 -0.805617 0.66738
lowerneck 4.37453 -17.876 -15.5652
upperneck 8.90211 -29.2155 25.5666
head 8.30887 -14.5344 7.69803
rclavicle -3.00165e-014 -3.89618e-014
rhumerus -38.3556 -15.7385 -79.7715
rradius 38.0171
rwrist 17.2827
rhand -16.9519 27.1397
rfingers 7.12502
rthumb 9.28171 -2.63596
lclavicle -3.00165e-014 -3.89618e-014
lhumerus -41.2699 15.7364 69.2277
lradius 37.9429
lwrist -11.055
lhand -7.52914 31.2349
lfingers 7.12502
lthumb 18.3619 60.3883
rfemur -5.45745 15.7229 5.64363
rtibia 9.65786
rfoot -6.10503 -13.0474
rtoes -4.40454
lfemur -5.75601 3.90284 -25.0618
ltibia 13.1701
lfoot -9.48698 5.14506
ltoes 14.745
211
root 11.8726 18.8971 11.4106 -148.351 -79.2383 151.886
lowerback -1.43007 -1.23833 -7.92876
upperback 0.900839 -1.52881 -3.42808
thorax 1.8457 -0.882466 0.848488
lowerneck 4.30634 -17.8155 -15.4097
upperneck 9.04978 -29.1345 25.4381
head 8.30262 -14.4847 7.65082
rclavicle 1.39149e-014 5.56597e-015
rhumerus -38.3495 -15.8564 -79.7228
rradius 38.4617
rwrist 16.7779
rhand -17.7068 26.914
rfingers 7.12502
rthumb 8.55326 -2.89281
lclavicle 1.39149e-014 5.56597e-015
lhumerus -41.1597 15.6157 69.2905
lradius 38.0058
lwrist -11.1616
lhand -8.19036 31.4589
lfingers 7.12502
lthumb 17.7257 60.671
rfemur -5.84734 15.6075 4.85711
rtibia 10.1867
rfoot -6.51837 -13.0117
rtoes -3.97381
lfemur -5.64325 3.83765 -25.7289
ltibia 12.7818
lfoot -9.48317 5.11082
ltoes 14.0262
212
root 11.8721 18.8946 11.4128 -145.888 -79.0294 149.377
lowerback -1.43091 -1.35176 -8.28912
upperback 0.893414 -1.68006 -3.59668
thorax 1.85524 -0.965403 0.867193
lowerneck 4.22203 -17.7615 -15.2584
upperneck 9.15144 -29.0353 25.285
head 8.27633 -14.4266 7.59793
rclavicle -2.0773e-014 -6.36111e-014
rhumerus -38.5109 -16.1505 -79.634
rradius 39.2787
rwrist 16.8431
rhand -18.5269 26.6347
rfingers 7.12502
rthumb 7.76176 -3.20288
lclavicle -2.0773e-014 -6.36111e-014
lhumerus -41.0191 15.4471 69.4053
lradius 38.0077
lwrist -11.0866
lhand -8.41794 31.402
lfingers 7.12502
lthumb 17.5067 60.6337
rfemur -6.13085 14.8168 4.27786
rtibia 10.8105
rfoot -6.80524 -12.2314
rtoes -4.06687
lfemur -5.37285 3.7629 -26.2942
ltibia 12.2818
lfoot -9.36752 5.14523
ltoes 14.2872
213
root 11.8731 18.8964 11.4069 -144.921 -78.8149 148.403
lowerback -1.44317 -1.27631 -8.49721
upperback 0.858166 -1.58255 -3.74665
thorax 1.81943 -0.920035 0.830569
lowerneck 4.33078 -17.7884 -15.1586
upperneck 9.12318 -29.1284 25.4172
head 8.27829 -14.4808 7.62117
rclavicle 4.58199e-014 2.14687e-014
rhumerus -38.851 -17.0574 -79.3432
rradius 40.2036
rwrist 17.5874
rhand -18.3751 26.5811
rfingers 7.12502
rthumb 7.90827 -3.25096
lclavicle 4.58199e-014 2.14687e-014
lhumerus -40.7378 14.9907 69.5937
lradius 37.9119
lwrist -11.2521
lhand -8.68501 31.7047
lfingers 7.12502
lthumb 17.2496 60.9591
rfemur -6.35818 15.3033 3.99383
rtibia 11.2646
rfoot -6.92186 -12.646
rtoes -4.84404
lfemur -5.19441 3.92083 -26.5662
ltibia 11.8919
lfoot -9.09909 5.03788
ltoes 14.4719
214
root 11.8725 18.8961 11.3939 -143.638 -78.6319 147.164
lowerback -1.53145 -1.29528 -8.96388
upperback 0.772541 -1.59784 -3.75445
thorax 1.79457 -0.931933 1.07747
lowerneck 4.51287 -17.7425 -15.1789
upperneck 9.11013 -29.0843 25.4164
head 8.23517 -14.4779 7.65501
rclavicle -2.31584e-014 2.38542e-014
rhumerus -38.9824 -17.4613 -79.085
rradius 40.4297
rwrist 16.5034
rhand -18.7022 27.6678
rfingers 7.12502
rthumb 7.59263 -2.17594
lclavicle -2.31584e-014 2.38542e-014
lhumerus -40.7439 14.6917 69.8402
lradius 38.035
lwrist -11.3521
lhand -9.23824 32.2176
lfingers 7.12502
lthumb 16.7171 61.5178
rfemur -6.53818 15.7773 3.66078
rtibia 11.4883
rfoot -7.06461 -13.0948
rtoes -4.53328
lfemur -5.18838 4.01039 -26.8469
ltibia 11.719
lfoot -8.90026 4.92016
ltoes 14.3061
